# xmcd
#
# Track frame offsets: 
#        150
#        13022
#        26478
#        35605
#        46907
#        57376
#        70216
#        83537
#        94925
#        106804
#
# Disc length: 1598 seconds
#
# Revision: 2
# Processed by: cddbd v1.5.2PL0 Copyright (c) Steve Scherf et al.
# Submitted via: ExactAudioCopy v1.3
#
DISCID=77063c0a
DTITLE=Carl and Pearl Butler - Carl and Pearl Butler_Don't Let Me Cross Ov
DTITLE=er
DYEAR=2006
DGENRE=Country
TTITLE0=Don't Let Me Cross Over
TTITLE1=Fifteen Years Ago
TTITLE2=Two Of A Kind
TTITLE3=Let's Watch The Blue Birds
TTITLE4=Easy Loving
TTITLE5=Hearts For Lunch
TTITLE6=She Didn't Come Home
TTITLE7=I'm So Close To Loving You
TTITLE8=Temptation Keeps Twisting Her Arm
TTITLE9=Watch That First Step
EXTD=
EXTT0=
EXTT1=
EXTT2=
EXTT3=
EXTT4=
EXTT5=
EXTT6=
EXTT7=
EXTT8=
EXTT9=
PLAYORDER=
